<svg viewBox="0 0 580 128" fill="none" xmlns="http://www.w3.org/2000/svg">
<g clip-path="url(#clip0_402_2)">
<path fill-rule="evenodd" clip-rule="evenodd" d="M0.470963 11.5606C0.470963 5.80197 5.13927 1.13367 10.8979 1.13367H101.265C107.023 1.13367 111.692 5.80197 111.692 11.5606V26.4563C111.692 32.2149 107.023 36.8832 101.265 36.8832H10.8979C5.13927 36.8832 0.470963 32.2149 0.470963 26.4563V11.5606ZM0.470965 56.2477C0.470965 50.489 5.13927 45.8207 10.8979 45.8207H101.265C107.023 45.8207 111.692 50.489 111.692 56.2477V71.1433C111.692 76.902 107.023 81.5703 101.265 81.5703H10.8979C5.13928 81.5703 0.470965 76.902 0.470965 71.1433V56.2477ZM10.8979 90.5075C5.13927 90.5075 0.470965 95.1758 0.470965 100.935V115.83C0.470965 121.589 5.13926 126.257 10.8979 126.257H52.6057C58.3644 126.257 63.0327 121.589 63.0327 115.83V100.935C63.0327 95.1758 58.3644 90.5075 52.6057 90.5075H10.8979Z" fill="url(#paint0_linear_402_2)"/>
<path d="M144.305 31.1552V84.2075C144.305 85.9176 145.264 86.8768 146.975 86.8768H153.481C155.191 86.8768 156.15 85.9176 156.15 84.2075V63.2285H175.169C176.879 63.2285 177.838 62.2692 177.838 60.5592V55.7211C177.838 54.0111 176.879 53.0518 175.169 53.0518H156.15V38.6626H177.171C178.881 38.6626 179.84 37.7033 179.84 35.9933V31.1552C179.84 29.4452 178.881 28.4859 177.171 28.4859H146.975C145.264 28.4859 144.305 29.4452 144.305 31.1552ZM184.379 65.2722C184.379 77.9097 194.639 87.8778 208.361 87.8778C222.125 87.8778 232.343 77.9097 232.343 65.2722C232.343 52.6347 222.125 42.6666 208.361 42.6666C194.639 42.6666 184.379 52.6347 184.379 65.2722ZM195.891 65.2722C195.891 58.2653 201.313 52.8015 208.361 52.8015C215.452 52.8015 220.874 58.2653 220.874 65.2722C220.874 72.3208 215.452 77.7428 208.361 77.7428C201.313 77.7428 195.891 72.3208 195.891 65.2722ZM262.135 52.8015C262.677 52.8015 263.261 52.8433 263.887 52.9267C265.722 53.2186 266.806 52.5513 266.973 50.7579L267.348 45.9198C267.474 44.3766 266.848 43.1253 265.305 42.8334C264.763 42.7083 264.179 42.6666 263.595 42.6666C258.632 42.6666 254.794 45.2941 252.042 48.9644V46.3368C252.042 44.6268 251.082 43.6675 249.372 43.6675H243.241C241.531 43.6675 240.572 44.6268 240.572 46.3368V84.2075C240.572 85.9176 241.531 86.8768 243.241 86.8768H249.372C251.082 86.8768 252.042 85.9176 252.042 84.2075V63.9792C252.042 57.2643 256.63 52.8015 262.135 52.8015ZM326.708 42.6666C320.827 42.6666 315.78 46.0449 312.819 51.3835C310.025 45.9615 304.644 42.6666 298.305 42.6666C293.592 42.6666 289.421 44.8354 286.418 48.4222V46.3368C286.418 44.6268 285.459 43.6675 283.749 43.6675H277.618C275.908 43.6675 274.948 44.6268 274.948 46.3368V84.2075C274.948 85.9176 275.908 86.8768 277.618 86.8768H283.749C285.459 86.8768 286.418 85.9176 286.418 84.2075V63.3536C286.418 56.8472 290.923 52.8015 295.802 52.8015C300.223 52.8015 303.351 56.5553 303.351 61.3516V84.2075C303.351 85.9176 304.311 86.8768 306.021 86.8768H312.152C313.862 86.8768 314.821 85.9176 314.821 84.2075V63.3536C314.821 56.8472 319.326 52.8015 324.205 52.8015C328.626 52.8015 331.754 56.5553 331.754 61.3516V84.2075C331.754 85.9176 332.714 86.8768 334.424 86.8768H340.555C342.265 86.8768 343.224 85.9176 343.224 84.2075V60.1421C343.224 49.6735 336.009 42.6666 326.708 42.6666ZM354.519 75.574L353.226 77.0338C352.142 78.2433 352.017 79.5363 353.143 80.7875C357.23 85.4171 361.985 87.8778 367.699 87.8778C378.418 87.8778 384.799 82.1638 384.799 74.5313C384.799 67.2325 380.211 62.6446 370.201 60.6009C365.363 59.5999 363.319 57.7231 363.319 55.4291C363.319 53.2186 365.572 51.8423 368.283 51.8423C370.41 51.8423 371.995 52.6764 372.954 54.2196C373.746 55.5543 374.455 56.305 375.999 56.305H381.504C383.381 56.305 384.424 55.1372 383.84 53.3438C381.671 46.7956 376.249 42.6666 367.699 42.6666C358.315 42.6666 352.1 48.0052 352.1 55.2623C352.1 62.4361 356.771 67.1907 366.156 69.1093C371.744 70.2354 373.58 71.8203 373.58 74.4062C373.58 77.0338 371.202 78.7021 367.24 78.7021C363.82 78.7021 360.984 77.5343 358.273 75.3655C356.896 74.2394 355.645 74.2811 354.519 75.574ZM439.572 65.2722C439.572 52.6347 430.772 42.6666 418.718 42.6666C412.671 42.6666 407.749 45.0022 404.329 48.8393V46.3368C404.329 44.6268 403.37 43.6675 401.66 43.6675H395.654C393.944 43.6675 392.985 44.6268 392.985 46.3368V103.56C392.985 105.27 393.944 106.229 395.654 106.229H401.66C403.37 106.229 404.329 105.27 404.329 103.56V81.7051C407.749 85.5422 412.671 87.8778 418.718 87.8778C430.772 87.8778 439.572 77.9097 439.572 65.2722ZM428.061 65.2722C428.061 72.3208 422.889 77.7428 416.258 77.7428C409.584 77.7428 404.329 72.3208 404.329 65.2722C404.329 58.2653 409.584 52.8015 416.258 52.8015C422.889 52.8015 428.061 58.2653 428.061 65.2722ZM469.371 52.8015C469.913 52.8015 470.497 52.8433 471.122 52.9267C472.958 53.2186 474.042 52.5513 474.209 50.7579L474.584 45.9198C474.709 44.3766 474.084 43.1253 472.54 42.8334C471.998 42.7083 471.414 42.6666 470.83 42.6666C465.867 42.6666 462.03 45.2941 459.277 48.9644V46.3368C459.277 44.6268 458.318 43.6675 456.608 43.6675H450.477C448.767 43.6675 447.808 44.6268 447.808 46.3368V84.2075C447.808 85.9176 448.767 86.8768 450.477 86.8768H456.608C458.318 86.8768 459.277 85.9176 459.277 84.2075V63.9792C459.277 57.2643 463.865 52.8015 469.371 52.8015ZM489.639 68.6922H521.212C522.839 68.6922 523.923 67.8998 524.09 66.2732C524.132 65.6893 524.173 65.0636 524.173 64.5214C524.173 52.4679 514.747 42.6666 501.526 42.6666C488.138 42.6666 478.045 52.6347 478.045 65.2722C478.045 77.9097 487.846 87.8778 502.61 87.8778C510.493 87.8778 516.249 84.9166 520.753 80.6207C521.963 79.4111 521.88 78.0348 520.67 76.8252L518.626 74.7816C517.458 73.6137 516.166 73.572 514.831 74.6147C511.369 77.3257 507.532 78.7438 502.569 78.7438C495.645 78.7438 490.64 74.6981 489.639 68.6922ZM501.443 51.8006C507.032 51.8006 511.119 55.3874 512.37 60.5175H489.931C491.475 55.2623 496.021 51.8006 501.443 51.8006ZM541.204 68.6922H572.777C574.403 68.6922 575.488 67.8998 575.655 66.2732C575.696 65.6893 575.738 65.0636 575.738 64.5214C575.738 52.4679 566.312 42.6666 553.091 42.6666C539.702 42.6666 529.609 52.6347 529.609 65.2722C529.609 77.9097 539.41 87.8778 554.175 87.8778C562.058 87.8778 567.813 84.9166 572.318 80.6207C573.527 79.4111 573.444 78.0348 572.234 76.8252L570.191 74.7816C569.023 73.6137 567.73 73.572 566.395 74.6147C562.934 77.3257 559.097 78.7438 554.133 78.7438C547.21 78.7438 542.205 74.6981 541.204 68.6922ZM553.007 51.8006C558.596 51.8006 562.683 55.3874 563.935 60.5175H541.496C543.039 55.2623 547.585 51.8006 553.007 51.8006Z" fill="black"/>
</g>
<defs>
<linearGradient id="paint0_linear_402_2" x1="0.470963" y1="1.13367" x2="125.595" y2="126.257" gradientUnits="userSpaceOnUse">
<stop stop-color="#EA1330"/>
<stop offset="1" stop-color="#AF041A"/>
</linearGradient>
<clipPath id="clip0_402_2">
<rect width="580" height="128" fill="white"/>
</clipPath>
</defs>
</svg>
